<svg xmlns="http://www.w3.org/2000/svg"  viewBox="0 0 100 100" width="100px" height="100px"><path fill="#4b4dff" d="M64,43V20H20v48c0,8.837,7.163,16,16,16h0h27h4c8.837,0,16-7.163,16-16V43H64z"/><path fill="#4343bf" d="M66,87H36c-10.477,0-19-8.523-19-19V17h47v6H23v45c0,7.168,5.832,13,13,13h30 c7.168,0,13-5.832,13-13V46H66v-6h19v28C85,78.477,76.477,87,66,87z"/><rect width="18" height="4" x="33" y="36" fill="#edf7f5"/><rect width="18" height="4" x="33" y="48" fill="#edf7f5"/><rect width="18" height="4" x="33" y="60" fill="#edf7f5"/><polygon fill="#3abcf8" points="85,36 71,36 71,17 61,17 61,64 71,64 71,46 85,46"/></svg>